<svg id="Layer_1" data-name="Layer 1" xmlns="http://www.w3.org/2000/svg" viewBox="0 0 1870.38 418.16"><title>zethus_full</title><polygon points="159.8 241.17 231.44 365.27 303.09 241.17 159.8 241.17"/><polygon points="54.32 58.49 98.6 135.18 364.28 135.18 320 58.49 54.32 58.49"/><polygon points="480.2 182.67 408.56 58.58 336.91 182.67 480.2 182.67"/><polygon points="585.68 365.35 541.4 288.66 275.72 288.66 320 365.35 585.68 365.35"/><path d="M885.76,59.56c6,0,7.57,3.79,5.68,9.08L797.19,312.4h83.27c3.79,0,6.06,1.89,6.06,6.05v37.48c0,3.78-2.27,6.05-6.06,6.43H733.22c-6.05,0-7.94-3.78-5.67-9.08L821.79,109.9H743.44c-3.78,0-6.05-2.27-6.05-6.06V66c0-4.16,2.27-6,6.05-6.43Z"/><path d="M1065.92,103.46c0,3.79-1.51,6.44-6.05,6.44H965.24v75.7h72.29c3.79,0,6.06,2.27,6.06,6.43v37.48c0,4.16-2.27,6.43-6.06,6.43H965.24V312.4h94.63c4.54,0,6.05,1.89,6.05,6.05v37.86c0,3.78-1.51,6.05-6.05,6.05H920.58c-3.41,0-5.68-2.27-5.68-6.05V65.62c0-3.79,2.27-6.06,5.68-6.06h139.29c4.54,0,6.05,2.27,6.05,6.06Z"/><path d="M1241.54,59.56c4.17,0,6.06,2.27,6.06,6.06v37.84c0,3.79-1.89,6.06-6.06,6.06h-43.9V356.31c0,4.16-1.89,6.05-6.06,6.05h-39.36c-3.79,0-6.06-1.89-6.06-6.05V109.52h-43.91c-3.78,0-6.06-2.27-6.06-6.06V65.62c0-3.79,2.28-6.06,6.06-6.06Z"/><path d="M1377.8,65.62c0-3.79,2.27-6.06,6-6.06h39c4.54,0,6.43,2.27,6.43,6.06V356.31c0,3.78-1.89,6.05-6.43,6.05h-39c-3.78,0-6-2.27-6-6.05V235.94h-48.45V356.31c0,3.78-2.27,6.05-6.06,6.05h-39c-4.55,0-6.44-2.27-6.44-6.05V65.62c0-3.79,1.89-6.06,6.44-6.06h39c3.79,0,6.06,2.27,6.06,6.06V186h48.45Z"/><path d="M1611,59.56a7.59,7.59,0,0,1,7.57,7.57V307.86c0,35.57-18.92,54.5-54.5,54.5h-42.39c-35.58,0-54.51-18.93-54.51-54.5V67.13a7.6,7.6,0,0,1,7.57-7.57H1511a7.6,7.6,0,0,1,7.57,7.57V297.26c0,10.22,5.3,15.14,15.14,15.14h19.68c9.84,0,15.14-4.92,15.14-15.14V67.13a7.6,7.6,0,0,1,7.57-7.57Z"/><path d="M1753.27,59.56c35.58,0,54.5,18.92,54.5,54.5v40.12c0,3.79-1.89,6.06-6,6.06h-39.37c-3.78,0-6-2.27-6-6.06V124.66c0-9.84-4.92-15.14-15.15-15.14H1723c-9.46,0-15.14,5.3-15.14,15.14v52.23l90.08,29.53c6.44,2.65,9.84,6.81,9.84,14v87.44c0,35.57-18.92,54.5-54.5,54.5h-42.39c-35.2,0-54.51-18.93-54.51-54.5V268.11c0-4.16,2.27-6.05,6.06-6.05h39.36c4.17,0,6.06,1.89,6.06,6.05v29.15c0,10.22,5.68,15.14,15.14,15.14h18.16c9.85,0,15.15-4.92,15.15-15.14V246.92l-89.71-29.53c-6.81-2.27-10.22-6.81-10.22-14V114.06c0-35.58,19.31-54.5,54.51-54.5Z"/></svg>