<svg id="Layer_1" data-name="Layer 1" xmlns="http://www.w3.org/2000/svg" viewBox="0 0 100 100"><defs><style>.cls-1{fill:none;stroke:#dc1d30;stroke-linecap:round;stroke-linejoin:round;stroke-width:1.5px;}</style></defs><title>icon_map</title><polygon class="cls-1" points="24.83 26.16 75.17 26.27 84 74.73 16 74.73 24.83 26.16"/><polyline class="cls-1" points="22.9 36.8 61 36.8 55 43 55 54 35 54"/><line class="cls-1" x1="77.29" y1="37.89" x2="36" y2="50"/><polyline class="cls-1" points="78.21 42.94 64 49 64 62 43 62 43 74.73"/><polyline class="cls-1" points="80.45 55.26 73 68 55 70 55 74.73"/><polyline class="cls-1" points="30.4 74.73 33 67 17.77 64.99"/><polyline class="cls-1" points="31.07 36.8 38 46 33 57 23 57 25 49"/><line class="cls-1" x1="20.23" y1="51.47" x2="35.69" y2="42.94"/><line class="cls-1" x1="35.69" y1="26.18" x2="38" y2="36.8"/><line class="cls-1" x1="51.91" y1="26.16" x2="46.37" y2="36.8"/><line class="cls-1" x1="61" y1="37" x2="59.67" y2="26.24"/><polyline class="cls-1" points="67.73 26.16 71 35 76.5 33.57"/></svg>